<mxfile host="Electron" modified="2024-04-10T22:54:28.120Z" agent="Mozilla/5.0 (Windows NT 10.0; Win64; x64) AppleWebKit/537.36 (KHTML, like Gecko) draw.io/24.0.4 Chrome/120.0.6099.109 Electron/28.1.0 Safari/537.36" etag="W_44ZxkiO6yHlAtnnaPr" version="24.0.4" type="device">
  <diagram name="Page-1" id="iXeg-zfbAlBCnqqb55lr">
    <mxGraphModel dx="1744" dy="714" grid="1" gridSize="10" guides="1" tooltips="1" connect="1" arrows="1" fold="1" page="1" pageScale="1" pageWidth="827" pageHeight="1169" math="0" shadow="0">
      <root>
        <mxCell id="0" />
        <mxCell id="1" parent="0" />
        <mxCell id="zP7d5f_9tEzzHWjP8LjR-1" value="Регистрация и вход" style="rounded=1;whiteSpace=wrap;html=1;fillColor=#dae8fc;strokeColor=#6c8ebf;" parent="1" vertex="1">
          <mxGeometry x="-670" y="30" width="120" height="60" as="geometry" />
        </mxCell>
        <mxCell id="zP7d5f_9tEzzHWjP8LjR-2" value="Поиск товара" style="rounded=1;whiteSpace=wrap;html=1;fillColor=#dae8fc;strokeColor=#6c8ebf;" parent="1" vertex="1">
          <mxGeometry x="-510" y="30" width="120" height="60" as="geometry" />
        </mxCell>
        <mxCell id="zP7d5f_9tEzzHWjP8LjR-3" value="" style="endArrow=none;html=1;rounded=0;" parent="1" edge="1">
          <mxGeometry width="50" height="50" relative="1" as="geometry">
            <mxPoint x="-530" y="700" as="sourcePoint" />
            <mxPoint x="-530" y="20" as="targetPoint" />
          </mxGeometry>
        </mxCell>
        <mxCell id="zP7d5f_9tEzzHWjP8LjR-4" value="" style="endArrow=none;html=1;rounded=0;" parent="1" edge="1">
          <mxGeometry width="50" height="50" relative="1" as="geometry">
            <mxPoint x="-690" y="120" as="sourcePoint" />
            <mxPoint x="200" y="120" as="targetPoint" />
          </mxGeometry>
        </mxCell>
        <mxCell id="zP7d5f_9tEzzHWjP8LjR-5" value="Регистрация аккаунта&amp;nbsp;" style="rounded=1;whiteSpace=wrap;html=1;fillColor=#fff2cc;strokeColor=#d6b656;" parent="1" vertex="1">
          <mxGeometry x="-660" y="140" width="100" height="50" as="geometry" />
        </mxCell>
        <mxCell id="zP7d5f_9tEzzHWjP8LjR-6" value="Регистрация с помощью социальных сетей" style="rounded=1;whiteSpace=wrap;html=1;fillColor=#f5f5f5;fontColor=#333333;strokeColor=#666666;" parent="1" vertex="1">
          <mxGeometry x="-670" y="290" width="120" height="50" as="geometry" />
        </mxCell>
        <mxCell id="zP7d5f_9tEzzHWjP8LjR-9" value="Найти товар" style="rounded=1;whiteSpace=wrap;html=1;fillColor=#fff2cc;strokeColor=#d6b656;" parent="1" vertex="1">
          <mxGeometry x="-500" y="140" width="100" height="50" as="geometry" />
        </mxCell>
        <mxCell id="zP7d5f_9tEzzHWjP8LjR-13" value="Привязать аккаунт&amp;nbsp; к&lt;br&gt;Apple ID&amp;nbsp;" style="rounded=1;whiteSpace=wrap;html=1;fillColor=#f5f5f5;strokeColor=#666666;fontColor=#333333;" parent="1" vertex="1">
          <mxGeometry x="-670" y="370" width="120" height="51" as="geometry" />
        </mxCell>
        <mxCell id="zP7d5f_9tEzzHWjP8LjR-14" value="Фильтр по цене" style="rounded=1;whiteSpace=wrap;html=1;fillColor=#f5f5f5;strokeColor=#666666;fontColor=#333333;" parent="1" vertex="1">
          <mxGeometry x="-510" y="290" width="120" height="50" as="geometry" />
        </mxCell>
        <mxCell id="zP7d5f_9tEzzHWjP8LjR-15" value="" style="endArrow=none;html=1;rounded=0;" parent="1" edge="1">
          <mxGeometry width="50" height="50" relative="1" as="geometry">
            <mxPoint x="-361.25" y="705" as="sourcePoint" />
            <mxPoint x="-361.25" y="25" as="targetPoint" />
          </mxGeometry>
        </mxCell>
        <mxCell id="zP7d5f_9tEzzHWjP8LjR-21" value="" style="endArrow=none;html=1;rounded=0;" parent="1" edge="1">
          <mxGeometry width="50" height="50" relative="1" as="geometry">
            <mxPoint x="-200" y="700" as="sourcePoint" />
            <mxPoint x="-200" y="30" as="targetPoint" />
          </mxGeometry>
        </mxCell>
        <mxCell id="zP7d5f_9tEzzHWjP8LjR-22" value="Покупка товара&lt;div&gt;&lt;br&gt;&lt;/div&gt;" style="rounded=1;whiteSpace=wrap;html=1;fillColor=#dae8fc;strokeColor=#6c8ebf;" parent="1" vertex="1">
          <mxGeometry x="25" y="30" width="120" height="60" as="geometry" />
        </mxCell>
        <mxCell id="zP7d5f_9tEzzHWjP8LjR-24" value="Ввести данные карты" style="rounded=1;whiteSpace=wrap;html=1;fillColor=#fff2cc;strokeColor=#d6b656;" parent="1" vertex="1">
          <mxGeometry x="20" y="130" width="130" height="50" as="geometry" />
        </mxCell>
        <mxCell id="zP7d5f_9tEzzHWjP8LjR-25" value="Подтвердить покупку" style="rounded=1;whiteSpace=wrap;html=1;fillColor=#fff2cc;strokeColor=#d6b656;" parent="1" vertex="1">
          <mxGeometry x="20" y="190" width="130" height="50" as="geometry" />
        </mxCell>
        <mxCell id="zP7d5f_9tEzzHWjP8LjR-26" value="Выбрать вариант оплаты" style="rounded=1;whiteSpace=wrap;html=1;fillColor=#f5f5f5;strokeColor=#666666;fontColor=#333333;" parent="1" vertex="1">
          <mxGeometry x="10" y="290" width="150" height="50" as="geometry" />
        </mxCell>
        <mxCell id="zP7d5f_9tEzzHWjP8LjR-31" value="&lt;font style=&quot;font-size: 14px;&quot;&gt;&lt;b&gt;Сделать обязательно&lt;/b&gt;&lt;/font&gt;" style="text;html=1;strokeColor=none;fillColor=none;align=center;verticalAlign=middle;whiteSpace=wrap;rounded=0;" parent="1" vertex="1">
          <mxGeometry x="-800" y="220" width="90" height="30" as="geometry" />
        </mxCell>
        <mxCell id="zP7d5f_9tEzzHWjP8LjR-32" value="&lt;font style=&quot;font-size: 14px;&quot;&gt;&lt;b&gt;Хорошо бы сделать&lt;/b&gt;&lt;/font&gt;" style="text;html=1;strokeColor=none;fillColor=none;align=center;verticalAlign=middle;whiteSpace=wrap;rounded=0;" parent="1" vertex="1">
          <mxGeometry x="-805" y="300" width="100" height="30" as="geometry" />
        </mxCell>
        <mxCell id="zP7d5f_9tEzzHWjP8LjR-33" value="&lt;font style=&quot;font-size: 14px;&quot;&gt;&lt;b&gt;Можно будет сделать&lt;/b&gt;&lt;/font&gt;" style="text;html=1;strokeColor=none;fillColor=none;align=center;verticalAlign=middle;whiteSpace=wrap;rounded=0;" parent="1" vertex="1">
          <mxGeometry x="-810" y="370" width="110" height="50" as="geometry" />
        </mxCell>
        <mxCell id="zP7d5f_9tEzzHWjP8LjR-36" value="" style="endArrow=none;html=1;rounded=0;" parent="1" edge="1">
          <mxGeometry width="50" height="50" relative="1" as="geometry">
            <mxPoint x="-800" y="350" as="sourcePoint" />
            <mxPoint x="200" y="350" as="targetPoint" />
          </mxGeometry>
        </mxCell>
        <mxCell id="zP7d5f_9tEzzHWjP8LjR-37" value="" style="endArrow=none;html=1;rounded=0;" parent="1" edge="1">
          <mxGeometry width="50" height="50" relative="1" as="geometry">
            <mxPoint x="-800" y="500" as="sourcePoint" />
            <mxPoint x="200" y="500" as="targetPoint" />
          </mxGeometry>
        </mxCell>
        <mxCell id="zP7d5f_9tEzzHWjP8LjR-41" value="" style="endArrow=none;html=1;rounded=0;edgeStyle=orthogonalEdgeStyle;strokeColor=#0b1bf4;" parent="1" edge="1">
          <mxGeometry width="50" height="50" relative="1" as="geometry">
            <mxPoint x="-670" y="344.58" as="sourcePoint" />
            <mxPoint x="210" y="344.58" as="targetPoint" />
            <Array as="points">
              <mxPoint x="-590" y="344.58" />
              <mxPoint x="-590" y="344.58" />
            </Array>
          </mxGeometry>
        </mxCell>
        <mxCell id="zP7d5f_9tEzzHWjP8LjR-43" value="" style="endArrow=none;html=1;rounded=0;strokeColor=#08fd39;" parent="1" edge="1">
          <mxGeometry width="50" height="50" relative="1" as="geometry">
            <mxPoint x="-690" y="500" as="sourcePoint" />
            <mxPoint x="190" y="429.17" as="targetPoint" />
            <Array as="points">
              <mxPoint x="-610" y="500" />
              <mxPoint x="-530" y="500" />
              <mxPoint x="-530" y="429.17" />
              <mxPoint x="-490" y="429.17" />
              <mxPoint x="-420" y="429.17" />
              <mxPoint x="-330" y="429.17" />
            </Array>
          </mxGeometry>
        </mxCell>
        <mxCell id="zP7d5f_9tEzzHWjP8LjR-44" value="&lt;font style=&quot;font-size: 14px;&quot;&gt;&lt;b&gt;ver.1&lt;/b&gt;&lt;/font&gt;" style="text;html=1;strokeColor=none;fillColor=none;align=center;verticalAlign=middle;whiteSpace=wrap;rounded=0;" parent="1" vertex="1">
          <mxGeometry x="240" y="260" width="60" height="30" as="geometry" />
        </mxCell>
        <mxCell id="zP7d5f_9tEzzHWjP8LjR-45" value="&lt;font style=&quot;font-size: 14px;&quot;&gt;&lt;b&gt;ver.2&lt;/b&gt;&lt;/font&gt;" style="text;html=1;strokeColor=none;fillColor=none;align=center;verticalAlign=middle;whiteSpace=wrap;rounded=0;" parent="1" vertex="1">
          <mxGeometry x="240" y="320" width="60" height="30" as="geometry" />
        </mxCell>
        <mxCell id="zP7d5f_9tEzzHWjP8LjR-46" value="&lt;font style=&quot;font-size: 14px;&quot;&gt;&lt;b&gt;ver.3&lt;br&gt;&lt;/b&gt;&lt;/font&gt;" style="text;html=1;strokeColor=none;fillColor=none;align=center;verticalAlign=middle;whiteSpace=wrap;rounded=0;" parent="1" vertex="1">
          <mxGeometry x="240" y="415" width="60" height="30" as="geometry" />
        </mxCell>
        <mxCell id="2-4vo48h3GAMsDpKHXhD-1" value="Вход/выход в/из аккаунт" style="rounded=1;whiteSpace=wrap;html=1;fillColor=#fff2cc;strokeColor=#d6b656;" parent="1" vertex="1">
          <mxGeometry x="-660" y="210" width="100" height="50" as="geometry" />
        </mxCell>
        <mxCell id="2-4vo48h3GAMsDpKHXhD-2" value="Фильтр по популярности" style="rounded=1;whiteSpace=wrap;html=1;fillColor=#f5f5f5;strokeColor=#666666;fontColor=#333333;" parent="1" vertex="1">
          <mxGeometry x="-510" y="370" width="140" height="45" as="geometry" />
        </mxCell>
        <mxCell id="iPZ7zbrKPxZ2wICY0ckH-3" value="Указать адрес и время достаки" style="rounded=1;whiteSpace=wrap;html=1;fillColor=#f5f5f5;strokeColor=#666666;fontColor=#333333;" parent="1" vertex="1">
          <mxGeometry x="10" y="370" width="150" height="50" as="geometry" />
        </mxCell>
        <mxCell id="49QyQJp3tfIdme64tZtk-4" value="Знакомство с товаром" style="rounded=1;whiteSpace=wrap;html=1;fillColor=#dae8fc;strokeColor=#6c8ebf;" vertex="1" parent="1">
          <mxGeometry x="-340" y="30" width="120" height="60" as="geometry" />
        </mxCell>
        <mxCell id="49QyQJp3tfIdme64tZtk-5" value="Управление корзиной" style="rounded=1;whiteSpace=wrap;html=1;fillColor=#dae8fc;strokeColor=#6c8ebf;" vertex="1" parent="1">
          <mxGeometry x="-170" y="30" width="120" height="60" as="geometry" />
        </mxCell>
        <mxCell id="49QyQJp3tfIdme64tZtk-6" value="" style="endArrow=none;html=1;rounded=0;" edge="1" parent="1">
          <mxGeometry width="50" height="50" relative="1" as="geometry">
            <mxPoint x="-20" y="700" as="sourcePoint" />
            <mxPoint x="-20" y="30" as="targetPoint" />
          </mxGeometry>
        </mxCell>
        <mxCell id="49QyQJp3tfIdme64tZtk-7" value="Посмотреть описание" style="rounded=1;whiteSpace=wrap;html=1;fillColor=#fff2cc;strokeColor=#d6b656;" vertex="1" parent="1">
          <mxGeometry x="-330" y="140" width="100" height="50" as="geometry" />
        </mxCell>
        <mxCell id="49QyQJp3tfIdme64tZtk-8" value="Посмотреть фото" style="rounded=1;whiteSpace=wrap;html=1;fillColor=#fff2cc;strokeColor=#d6b656;" vertex="1" parent="1">
          <mxGeometry x="-330" y="200" width="100" height="50" as="geometry" />
        </mxCell>
        <mxCell id="49QyQJp3tfIdme64tZtk-9" value="Выбрать бренд" style="rounded=1;whiteSpace=wrap;html=1;fillColor=#f5f5f5;strokeColor=#666666;fontColor=#333333;" vertex="1" parent="1">
          <mxGeometry x="-340" y="290" width="120" height="50" as="geometry" />
        </mxCell>
        <mxCell id="49QyQJp3tfIdme64tZtk-10" value="Почитать отзывы" style="rounded=1;whiteSpace=wrap;html=1;fillColor=#f5f5f5;strokeColor=#666666;fontColor=#333333;" vertex="1" parent="1">
          <mxGeometry x="-350" y="370" width="140" height="45" as="geometry" />
        </mxCell>
        <mxCell id="49QyQJp3tfIdme64tZtk-11" value="Добавить в корзину" style="rounded=1;whiteSpace=wrap;html=1;fillColor=#fff2cc;strokeColor=#d6b656;" vertex="1" parent="1">
          <mxGeometry x="-160" y="140" width="100" height="50" as="geometry" />
        </mxCell>
        <mxCell id="49QyQJp3tfIdme64tZtk-12" value="Удалить из корзины" style="rounded=1;whiteSpace=wrap;html=1;fillColor=#f5f5f5;strokeColor=#666666;fontColor=#333333;" vertex="1" parent="1">
          <mxGeometry x="-160" y="200" width="100" height="50" as="geometry" />
        </mxCell>
        <mxCell id="49QyQJp3tfIdme64tZtk-13" value="Изменить кол-во товара" style="rounded=1;whiteSpace=wrap;html=1;fillColor=#f5f5f5;strokeColor=#666666;fontColor=#333333;" vertex="1" parent="1">
          <mxGeometry x="-170" y="290" width="120" height="50" as="geometry" />
        </mxCell>
        <mxCell id="49QyQJp3tfIdme64tZtk-23" value="" style="endArrow=none;html=1;rounded=0;" edge="1" parent="1">
          <mxGeometry width="50" height="50" relative="1" as="geometry">
            <mxPoint x="-790" y="280" as="sourcePoint" />
            <mxPoint x="210" y="280" as="targetPoint" />
          </mxGeometry>
        </mxCell>
        <mxCell id="49QyQJp3tfIdme64tZtk-20" value="" style="endArrow=none;html=1;rounded=0;edgeStyle=orthogonalEdgeStyle;strokeColor=#d51010;" edge="1" parent="1">
          <mxGeometry width="50" height="50" relative="1" as="geometry">
            <mxPoint x="-680" y="200" as="sourcePoint" />
            <mxPoint x="200" y="280" as="targetPoint" />
            <Array as="points">
              <mxPoint x="-380" y="200" />
              <mxPoint x="-380" y="280" />
            </Array>
          </mxGeometry>
        </mxCell>
        <mxCell id="49QyQJp3tfIdme64tZtk-24" value="Войти по номеру телефона" style="rounded=1;whiteSpace=wrap;html=1;fillColor=#f5f5f5;strokeColor=#666666;fontColor=#333333;" vertex="1" parent="1">
          <mxGeometry x="-670" y="440" width="120" height="51" as="geometry" />
        </mxCell>
      </root>
    </mxGraphModel>
  </diagram>
</mxfile>
